<svg xmlns="http://www.w3.org/2000/svg" viewBox="0 0 210 210" role="img"><title>Luks, ícono de app</title><rect width="210" height="210" rx="46" fill="#F6F2E8"/><g transform="translate(13.8 19.8) scale(0.85)"><path d="M58 14 C36 12 22 30 23 56 L27 140 C28 162 44 176 64 174 C80 172 90 160 90 140 L92 70 C92 38 80 16 58 14 Z" fill="#3E9A70"/><path d="M26 156 C30 132 58 124 86 130 C108 135 124 120 146 106 C168 94 194 108 193 138 C192 170 168 189 134 189 L64 189 C38 189 22 176 26 156 Z" fill="#7A5AB3"/><circle cx="128" cy="70" r="23" fill="#F0BE2E"/></g></svg>
